<svg xmlns="http://www.w3.org/2000/svg" viewBox="0 0 40.82 49.43"><defs><style>.cls-1{fill:#dcca58;}</style></defs><g id="Layer_2" data-name="Layer 2"><g id="Layer_1-2" data-name="Layer 1"><path class="cls-1" d="M40.51,33.39A26.22,26.22,0,0,0,36.4,22.28c-2.51-3.64-6.1-6.31-9.32-8.45A1.69,1.69,0,0,0,28,13a1.55,1.55,0,0,0,0-1.23,2,2,0,0,0-.82-.94c.39-.5.75-1,1.12-1.54a19.66,19.66,0,0,1,2.27-2.81c.83-.82,1.57-1.68,2.3-2.53S34.22,2.31,35,1.57A.55.55,0,0,0,35.1,1a.57.57,0,0,0-.52-.37C34,.58,33.4.51,32.85.46a17.3,17.3,0,0,0-2-.15,5.84,5.84,0,0,0-3.19.87,7,7,0,0,0-.87.67,2.56,2.56,0,0,1-1.55.84,1.57,1.57,0,0,1-.65-.15,5.21,5.21,0,0,1-1.28-.94A4.81,4.81,0,0,0,21.83.54,4.82,4.82,0,0,0,20.08.2a4.11,4.11,0,0,0-1.23.18,7.37,7.37,0,0,0-1.77.9,4.43,4.43,0,0,1-2.21.88,2.83,2.83,0,0,1-1.76-.73A4.76,4.76,0,0,0,9.92,0,9.74,9.74,0,0,0,7.6.39a.54.54,0,0,0-.37.32.58.58,0,0,0,0,.5A28.87,28.87,0,0,0,9.94,4.8a18.69,18.69,0,0,1,3.64,5.66,3,3,0,0,0-.76.42,1.57,1.57,0,0,0-.77,1.43,1.76,1.76,0,0,0,1,1.29C10,15.22,7.68,17.88,5.44,20.46l-.65.74A20.29,20.29,0,0,0,.67,30.36c-.59,2.73-1.32,8,.4,12.47A15.42,15.42,0,0,0,4.51,48.1c.43.46.9.9,1.39,1.33H7.73A20,20,0,0,1,6.16,48.1a16.33,16.33,0,0,1-2.23-2.47c-3-4-2.93-8.77-2.54-12.45.25-2.43,1-7,3.41-10.27,3.45-4.72,6.73-7.64,10-8.92.06,0,.12-.06.12-.08A14.23,14.23,0,0,1,17,13.79c.77,0,1.53,0,2.3.07s1.26.07,1.9.08c.46,0,1,.05,1.57.11s1.45.12,2.16.12a3.27,3.27,0,0,0,.57,0c5.32,3.44,11.05,8,13.2,16a25.69,25.69,0,0,1,.91,8.9,14.87,14.87,0,0,1-4.43,9,16.67,16.67,0,0,1-1.44,1.33h1.73c.44-.42.87-.87,1.27-1.33a17.85,17.85,0,0,0,2.57-3.73C40.79,41.52,41.17,37.93,40.51,33.39ZM10.92,4.27a33.4,33.4,0,0,1-2.3-3A5,5,0,0,1,10,1h.11a3.13,3.13,0,0,1,2,1.08c.23.21.46.42.71.61a4,4,0,0,0,2,.9l.26,0A3.86,3.86,0,0,0,17,3a8.29,8.29,0,0,0,1.11-.77,3.09,3.09,0,0,1,2-.9,3.15,3.15,0,0,1,.78.1A4.69,4.69,0,0,1,23,2.73l.31.28a3,3,0,0,0,2,.93,2.88,2.88,0,0,0,1.78-.77l.44-.38a5.45,5.45,0,0,1,2-1.28,4.16,4.16,0,0,1,1.21-.15A17.09,17.09,0,0,1,33,1.57l.36,0c-.46.5-.9,1-1.33,1.51-.73.84-1.49,1.72-2.31,2.52a19.1,19.1,0,0,0-2.27,2.84c-.45.62-.91,1.28-1.4,1.88-.45-.11-.92-.16-1.33-.22l-.44-.06a21.37,21.37,0,0,0-3.23-.21C20,9.87,19,9.92,18,10c-.32,0-.66,0-1,0a15.14,15.14,0,0,0-2.3.15A19.38,19.38,0,0,0,10.92,4.27ZM26,12.91a1.44,1.44,0,0,1-.77.14,15.12,15.12,0,0,1-1.64-.14c-.35-.05-.66-.08-.83-.09H21.72c-.61,0-1.2,0-1.81,0h-.19c-.86,0-1.74-.08-2.61-.08a17.58,17.58,0,0,0-2.39.14h-.1a1.16,1.16,0,0,1-.91-.51.69.69,0,0,1-.09-.66c.12-.28,1.56-.4,2.1-.45l.3,0c.82-.08,1.69-.11,2.52-.14.37,0,.75,0,1.11,0,.53,0,1.05,0,1.58,0S22.44,11,23,11c.7.07,1.44.18,2.28.33l.1,0c.34.06,1.26.21,1.35.6C26.76,12.21,26.53,12.53,26,12.91Z"/><path class="cls-1" d="M26.66,37c-.07-2.63-2.36-3.54-4.12-4,0-2.34-.05-4.77-.05-7.41a4.22,4.22,0,0,1,3.06,1.73.54.54,0,0,0,.46.26.6.6,0,0,0,.53-.31.47.47,0,0,0,0-.52,5.59,5.59,0,0,0-4-2.14s0-1.56,0-2a.56.56,0,0,0-.15-.38.57.57,0,0,0-.41-.16.53.53,0,0,0-.56.54c0,.38,0,1.87,0,1.87H21a10.91,10.91,0,0,0-1.9.17V22.78A.52.52,0,0,0,19,22.4a.54.54,0,0,0-.41-.16.53.53,0,0,0-.56.54V25c-2.94.89-4.33,2.77-3.7,5.06.55,2,2.24,2.75,3.68,3.15v7a4.64,4.64,0,0,1-3.36-3.28.54.54,0,0,0-.53-.39.6.6,0,0,0-.48.23.49.49,0,0,0-.06.47A5.54,5.54,0,0,0,18,41.34v4.1a.52.52,0,0,0,.15.38.58.58,0,0,0,.41.16.54.54,0,0,0,.56-.54V41.49l.69,0h.3a14.65,14.65,0,0,0,1.6-.15v.12c0,1.28.1,2.56.16,3.84a.57.57,0,0,0,.58.53.58.58,0,0,0,.41-.16.47.47,0,0,0,.13-.38c-.06-1.39-.12-2.78-.17-4.17C24.61,40.66,26.74,39.56,26.66,37ZM18,32a3.78,3.78,0,0,1-2-1.32,2.43,2.43,0,0,1-.48-2,3.93,3.93,0,0,1,2.22-2.27,1.75,1.75,0,0,1,.28-.13Zm1.14-6.16a8.75,8.75,0,0,1,2.25-.33c0,2.56,0,4.92.05,7.21l-1.14-.21-.44-.08c-.24,0-.49-.08-.74-.14Zm2.1,14.44a13.14,13.14,0,0,1-1.35.08,6.68,6.68,0,0,1-.78,0V33.42l1.23.23,1.1.19c.05,2.15.11,4.28.19,6.43ZM22.73,40q-.11-3-.17-5.91c1.21.37,2.58,1,2.81,2.72C25.61,38.74,24.1,39.62,22.73,40Z"/><path class="cls-1" d="M4.21,33.64A25.15,25.15,0,0,1,8.6,23.71a.46.46,0,0,0,.06-.5.63.63,0,0,0-.55-.32.57.57,0,0,0-.46.24A25.87,25.87,0,0,0,3.12,33.35a.6.6,0,0,0,.11.47.65.65,0,0,0,.48.23A.5.5,0,0,0,4.21,33.64Z"/><path class="cls-1" d="M9.71,21.87a.53.53,0,0,0,.54-.56.6.6,0,0,0-.13-.38.56.56,0,0,0-.82,0,.55.55,0,0,0-.13.38A.53.53,0,0,0,9.71,21.87Z"/></g></g></svg>